<?xml version="1.0" encoding="UTF-8"?>
<!DOCTYPE svg PUBLIC "-//W3C//DTD SVG 1.1//EN" "http://www.w3.org/Graphics/SVG/1.1/DTD/svg11.dtd">
<svg xmlns="http://www.w3.org/2000/svg" version="1.1" width="1304px" height="531px" style="shape-rendering:geometricPrecision; text-rendering:geometricPrecision; image-rendering:optimizeQuality; fill-rule:evenodd; clip-rule:evenodd" xmlns:xlink="http://www.w3.org/1999/xlink">
<g><path style="opacity:0.946" fill="#fe0000" d="M 20.5,-0.5 C 23.8333,-0.5 27.1667,-0.5 30.5,-0.5C 45.9636,3.14876 59.7969,10.1488 72,20.5C 74.4869,29.7333 75.3203,39.0667 74.5,48.5C 59.5419,36.691 42.5419,29.8577 23.5,28C 21.693,18.6303 20.693,9.13029 20.5,-0.5 Z"/></g>
<g><path style="opacity:0.921" fill="#fff" d="M 212.5,-0.5 C 213.5,-0.5 214.5,-0.5 215.5,-0.5C 226.475,6.3247 237.809,12.658 249.5,18.5C 234.36,20.0247 219.026,20.6914 203.5,20.5C 206.773,13.6205 209.773,6.6205 212.5,-0.5 Z"/></g>
<g><path style="opacity:0.977" fill="#ff0301" d="M 476.5,71.5 C 475.456,89.9573 476.956,108.291 481,126.5C 481.667,131.5 481.667,136.5 481,141.5C 474.462,145.435 467.795,149.102 461,152.5C 460.719,145.203 459.552,138.203 457.5,131.5C 454.755,117.953 452.755,104.287 451.5,90.5C 451.968,85.4136 452.468,80.4136 453,75.5C 446.549,78.6427 440.049,81.6427 433.5,84.5C 418.865,90.4809 404.199,96.4809 389.5,102.5C 381.76,98.256 374.427,93.4227 367.5,88C 381.664,82.3895 395.664,76.3895 409.5,70C 414.223,67.9783 418.557,65.4783 422.5,62.5C 436.694,56.7136 450.361,49.8803 463.5,42C 472.5,34.3333 480.833,26 488.5,17C 491.319,14.509 494.486,12.6757 498,11.5C 506.759,15.4637 514.592,20.797 521.5,27.5C 511.056,35.1092 501.723,43.9426 493.5,54C 489.102,57.3943 484.435,60.3943 479.5,63C 478.268,65.7656 477.268,68.599 476.5,71.5 Z"/></g>
<g><path style="opacity:0.976" fill="#ff0402" d="M 287.5,38.5 C 262.521,40.142 237.521,40.9753 212.5,41C 208.572,36.5642 204.239,32.7308 199.5,29.5C 197.359,26.7105 195.693,23.7105 194.5,20.5C 197.5,20.5 200.5,20.5 203.5,20.5C 219.026,20.6914 234.36,20.0247 249.5,18.5C 266.357,17.6443 283.19,16.6443 300,15.5C 301.225,15.8623 302.391,16.3623 303.5,17C 309.02,23.0191 314.353,29.1857 319.5,35.5C 318.975,36.1924 318.308,36.6924 317.5,37C 307.499,37.5527 297.499,38.0527 287.5,38.5 Z"/></g>
<g><path style="opacity:0.983" fill="#fff" d="M 199.5,29.5 C 204.239,32.7308 208.572,36.5642 212.5,41C 237.521,40.9753 262.521,40.142 287.5,38.5C 293.359,44.8763 297.692,52.2097 300.5,60.5C 263.511,62.4757 226.511,64.309 189.5,66C 187.283,67.7235 184.95,69.2235 182.5,70.5C 188.362,56.9142 194.029,43.2476 199.5,29.5 Z"/></g>
<g><path style="opacity:0.952" fill="#fe0000" d="M -0.5,66.5 C -0.5,65.1667 -0.5,63.8333 -0.5,62.5C 1.32534,55.516 3.492,48.516 6,41.5C 23.6981,40.8405 39.8648,45.6738 54.5,56C 57.3588,58.0771 59.6921,60.5771 61.5,63.5C 60.5298,71.8641 58.3631,79.8641 55,87.5C 39.1637,73.7176 20.6637,66.7176 -0.5,66.5 Z"/></g>
<g><path style="opacity:0.941" fill="#fe0000" d="M 173.5,40.5 C 177.694,64.7303 170.361,85.2303 151.5,102C 129.774,122.203 104.441,136.203 75.5,144C 57.1358,150.112 38.4692,153.279 19.5,153.5C 22.6842,144.777 26.3508,136.277 30.5,128C 65.6868,126.047 98.3535,116.047 128.5,98C 139.896,89.6092 150.396,80.1092 160,69.5C 166.655,60.8547 171.155,51.188 173.5,40.5 Z"/></g>
<g><path style="opacity:0.982" fill="#fff" d="M 839.5,42.5 C 862.446,41.1989 885.113,43.0323 907.5,48C 915.771,49.2841 921.271,53.7841 924,61.5C 931.548,84.0251 937.048,107.025 940.5,130.5C 919.896,135.868 899.729,142.535 880,150.5C 877.187,130.807 874.187,111.14 871,91.5C 870.692,90.6919 870.192,90.0253 869.5,89.5C 865.808,90.5639 862.141,91.7305 858.5,93C 857.572,93.3879 856.905,94.0546 856.5,95C 860.444,119.049 863.444,143.215 865.5,167.5C 878.081,163.139 890.581,158.472 903,153.5C 916.257,148.58 929.757,144.58 943.5,141.5C 946.372,157.437 948.539,173.437 950,189.5C 923.353,197.577 897.187,206.911 871.5,217.5C 872.593,233.854 873.926,250.187 875.5,266.5C 880.833,264.833 886.167,263.167 891.5,261.5C 890.93,250.3 889.93,239.133 888.5,228C 888.559,226.564 888.892,225.231 889.5,224C 910.219,215.091 931.386,208.258 953,203.5C 957.077,232.448 960.743,261.448 964,290.5C 965.475,329.326 948.975,357.492 914.5,375C 898.963,380.718 882.963,384.218 866.5,385.5C 846.638,385.95 830.472,378.616 818,363.5C 815.775,359.719 814.109,355.719 813,351.5C 808.054,260.816 802.554,170.149 796.5,79.5C 797.784,64.7244 805.118,54.2244 818.5,48C 825.452,45.451 832.452,43.6176 839.5,42.5 Z"/></g>
<g><path style="opacity:0.981" fill="#fff" d="M 949.5,45.5 C 982.595,45.7202 1015.26,49.5535 1047.5,57C 1053.28,58.3694 1058.62,60.7027 1063.5,64C 1078.35,82.5274 1088.85,103.361 1095,126.5C 1097.34,138.63 1094.84,149.63 1087.5,159.5C 1104.06,175.603 1115.22,194.936 1121,217.5C 1130.06,257.609 1137.89,297.942 1144.5,338.5C 1121.47,337.158 1098.47,337.492 1075.5,339.5C 1068.6,284.461 1059.44,229.795 1048,175.5C 1046.65,174.296 1044.98,173.629 1043,173.5C 1039.51,173.999 1036.01,174.332 1032.5,174.5C 1043.12,229.526 1051.78,284.86 1058.5,340.5C 1035.44,343.033 1012.44,346.033 989.5,349.5C 983.132,285.887 974.632,222.554 964,159.5C 958.581,123.154 949.414,87.8207 936.5,53.5C 936.876,51.6171 937.876,50.1171 939.5,49C 942.85,47.5137 946.184,46.347 949.5,45.5 Z M 1002.5,71.5 C 1007.02,70.1876 1011.68,70.1876 1016.5,71.5C 1025.16,89.8035 1031.82,108.803 1036.5,128.5C 1031.5,128.5 1026.5,128.5 1021.5,128.5C 1017.33,108.67 1011,89.6695 1002.5,71.5 Z"/></g>
<g><path style="opacity:0.983" fill="#fff" d="M 422.5,62.5 C 418.557,65.4783 414.223,67.9783 409.5,70C 395.664,76.3895 381.664,82.3895 367.5,88C 374.427,93.4227 381.76,98.256 389.5,102.5C 404.199,96.4809 418.865,90.4809 433.5,84.5C 438.654,100.887 441.321,117.72 441.5,135C 432.615,212.812 419.781,289.978 403,366.5C 396.429,388.485 385.596,407.985 370.5,425C 376.886,439.818 378.386,454.984 375,470.5C 369.075,490.665 359.575,508.832 346.5,525C 328.052,527.223 309.719,529.057 291.5,530.5C 285.833,530.5 280.167,530.5 274.5,530.5C 288.32,514.898 299.153,497.231 307,477.5C 311.669,466.323 315.836,454.99 319.5,443.5C 314.597,443.061 309.763,442.394 305,441.5C 295.536,469.094 282.869,495.094 267,519.5C 263.826,523.198 260.659,526.865 257.5,530.5C 243.833,530.5 230.167,530.5 216.5,530.5C 205.579,529.655 194.579,528.321 183.5,526.5C 194.695,513.469 204.529,499.469 213,484.5C 227.948,454.987 240.948,424.654 252,393.5C 280.328,307.524 303.661,220.191 322,131.5C 328.089,110.202 337.422,90.5354 350,72.5C 357.352,62.4772 366.518,54.6438 377.5,49C 390.331,46.8602 402.664,48.5268 414.5,54C 417.371,56.7028 420.038,59.5361 422.5,62.5 Z M 357.5,235.5 C 361.814,236.275 366.147,236.941 370.5,237.5C 361.941,286.899 350.941,335.733 337.5,384C 332.47,384.414 327.47,384.081 322.5,383C 336.128,334.319 347.795,285.153 357.5,235.5 Z"/></g>
<g><path style="opacity:0.983" fill="#fff" d="M 773.5,50.5 C 775.833,50.5 778.167,50.5 780.5,50.5C 781.368,73.5154 782.201,96.5154 783,119.5C 772,124.167 761,128.833 750,133.5C 750.27,195.177 751.27,256.844 753,318.5C 765.389,311.222 778.222,304.889 791.5,299.5C 792.599,333.497 793.599,367.497 794.5,401.5C 776.494,406.89 758.494,412.39 740.5,418C 727.407,420.276 714.407,419.943 701.5,417C 689.42,412.351 683.753,403.518 684.5,390.5C 687.9,313.169 690.233,235.835 691.5,158.5C 679.915,163.695 668.249,168.695 656.5,173.5C 656.167,171.333 655.833,169.167 655.5,167C 657.682,132.189 659.349,97.3552 660.5,62.5C 698.313,58.5529 735.979,54.5529 773.5,50.5 Z"/></g>
<g><path style="opacity:0.981" fill="#fff" d="M 586.5,56.5 C 606.615,54.4739 621.781,62.1406 632,79.5C 639.806,92.416 643.639,106.416 643.5,121.5C 640.673,174.567 637.007,227.567 632.5,280.5C 612.991,291.088 593.325,301.422 573.5,311.5C 573.167,310.167 572.833,308.833 572.5,307.5C 576.271,272.958 579.937,238.458 583.5,204C 579.073,204.695 574.74,206.029 570.5,208C 565.084,250.08 560.25,292.247 556,334.5C 581.196,322.152 606.029,309.152 630.5,295.5C 630.833,297.667 631.167,299.833 631.5,302C 630.361,316.836 629.194,331.669 628,346.5C 627.535,347.931 626.701,349.097 625.5,350C 600.146,363.677 574.48,376.844 548.5,389.5C 544.446,411.488 540.279,433.488 536,455.5C 533.94,466.075 531.107,476.408 527.5,486.5C 504.121,493.762 480.455,499.595 456.5,504C 463.91,488.438 469.744,472.271 474,455.5C 487.793,397.074 498.46,338.074 506,278.5C 511.826,235.227 517.159,191.894 522,148.5C 526.2,119.783 537.2,94.1167 555,71.5C 563.491,62.0018 573.991,57.0018 586.5,56.5 Z"/></g>
<g><path style="opacity:0.987" fill="#ff0a04" d="M 304.5,74.5 C 299.22,73.3389 293.886,73.3389 288.5,74.5C 287.751,83.4669 287.251,92.4669 287,101.5C 285.463,116.75 278.63,128.917 266.5,138C 258.719,143.224 250.386,147.39 241.5,150.5C 232.373,149.268 223.373,147.434 214.5,145C 227.76,140.125 239.26,132.625 249,122.5C 256.225,109.837 259.392,96.1702 258.5,81.5C 258.5,79.8333 258.5,78.1667 258.5,76.5C 254.629,76.185 250.962,76.5184 247.5,77.5C 224.131,78.0774 200.797,79.0774 177.5,80.5C 174.813,80.6641 172.146,80.4974 169.5,80C 173.431,76.2288 177.764,73.0621 182.5,70.5C 184.95,69.2235 187.283,67.7235 189.5,66C 226.511,64.309 263.511,62.4757 300.5,60.5C 320.134,58.2404 339.801,58.0737 359.5,60C 353.016,65.4109 346.016,70.0776 338.5,74C 327.149,73.6407 315.816,73.8074 304.5,74.5 Z"/></g>
<g><path style="opacity:0.97"  fill="#fff" d="M 1303.5,341.5 C 1303.5,345.167 1303.5,348.833 1303.5,352.5C 1299.71,357.281 1294.71,360.114 1288.5,361C 1264.28,363.689 1240.62,361.022 1217.5,353C 1189.51,341.343 1169.01,321.843 1156,294.5C 1148.23,262.147 1140.4,229.814 1132.5,197.5C 1154.36,203.398 1175.36,211.565 1195.5,222C 1199.85,232.197 1203.51,242.697 1206.5,253.5C 1211.25,256.294 1216.09,258.96 1221,261.5C 1217.64,248.406 1213.64,235.406 1209,222.5C 1191.91,212.376 1175.08,201.876 1158.5,191C 1147.44,182.943 1137.27,173.777 1128,163.5C 1123.33,158.168 1119.66,152.168 1117,145.5C 1109.36,121.55 1099.02,98.8833 1086,77.5C 1084.04,74.5372 1081.71,71.8706 1079,69.5C 1078.51,68.2068 1078.34,66.8734 1078.5,65.5C 1089.92,65.3442 1101.26,66.8442 1112.5,70C 1134.96,74.8175 1155.96,83.1509 1175.5,95C 1192.41,106.574 1204.91,121.741 1213,140.5C 1225.5,167.351 1238,194.184 1250.5,221C 1249.83,221.667 1249.17,221.667 1248.5,221C 1230.13,202.291 1210.3,185.457 1189,170.5C 1181.22,152.276 1172.39,134.609 1162.5,117.5C 1159.08,115.374 1155.58,113.374 1152,111.5C 1161.17,130.694 1170.01,150.194 1178.5,170C 1219.8,195.788 1251.64,230.288 1274,273.5C 1283.61,296.373 1293.44,319.04 1303.5,341.5 Z"/></g>
<g><path style="opacity:0.978" fill="#fff" d="M 476.5,71.5 C 489.543,72.2063 502.543,72.2063 515.5,71.5C 508.463,155.799 498.296,239.799 485,323.5C 477.814,372.098 467.814,420.098 455,467.5C 451.142,481.875 445.642,495.541 438.5,508.5C 414.712,514.796 390.712,519.129 366.5,521.5C 376.418,507.666 384.252,492.666 390,476.5C 398.733,451.237 406.066,425.57 412,399.5C 431.165,310.843 446.332,221.51 457.5,131.5C 459.552,138.203 460.719,145.203 461,152.5C 467.795,149.102 474.462,145.435 481,141.5C 481.667,136.5 481.667,131.5 481,126.5C 476.956,108.291 475.456,89.9573 476.5,71.5 Z"/></g>
<g><path style="opacity:0.985" fill="#fff" d="M 304.5,74.5 C 308.252,95.1307 308.418,115.797 305,136.5C 285.273,228.677 259.273,319.01 227,407.5C 215.293,437.969 201.293,467.302 185,495.5C 178.08,503.879 169.247,509.045 158.5,511C 133.579,516.305 108.912,515.305 84.5,508C 55.4213,499.364 27.088,488.864 -0.5,476.5C -0.5,475.167 -0.5,473.833 -0.5,472.5C 61.3354,343.004 120.669,212.338 177.5,80.5C 200.797,79.0774 224.131,78.0774 247.5,77.5C 250.833,77.5 254.167,77.5 257.5,77.5C 257.232,79.099 257.566,80.4324 258.5,81.5C 259.392,96.1702 256.225,109.837 249,122.5C 239.26,132.625 227.76,140.125 214.5,145C 223.373,147.434 232.373,149.268 241.5,150.5C 250.386,147.39 258.719,143.224 266.5,138C 278.63,128.917 285.463,116.75 287,101.5C 287.251,92.4669 287.751,83.4669 288.5,74.5C 293.886,73.3389 299.22,73.3389 304.5,74.5 Z M 217.5,168.5 C 222.148,172.143 226.815,175.81 231.5,179.5C 208.9,252.683 182.4,324.349 152,394.5C 146.328,407.178 140.161,419.511 133.5,431.5C 127.996,428.249 122.662,424.749 117.5,421C 156.799,339.229 190.132,255.062 217.5,168.5 Z"/></g>
<g><path style="opacity:1"     fill="#ff8e8c" d="M 247.5,77.5 C 250.962,76.5184 254.629,76.185 258.5,76.5C 258.5,78.1667 258.5,79.8333 258.5,81.5C 257.566,80.4324 257.232,79.099 257.5,77.5C 254.167,77.5 250.833,77.5 247.5,77.5 Z"/></g>
<style>
    svg { fill: #000; }

    @media (prefers-color-scheme: dark) {
        svg { fill: #FFF; }
    }
    </style>
</svg>

