<svg xmlns="http://www.w3.org/2000/svg" width="1738.7" height="708" version="1.0" viewBox="0 0 1304 531"><path d="m22 6 2 22 8 1c13 2 29 9 41 18l3 2v-3l-2-13c-2-12-1-12-12-19C52 7 39 2 26 0h-4v6zM492 16l-13 13-15 14a994 994 0 0 1-94 46l10 8 10 6 12-5a1401 1401 0 0 0 51-22v14c0 12 1 17 4 32l4 24v7l6-3 11-6 4-2v-8l-3-21c-3-15-4-33-2-42l1-7 6-4c4-2 12-9 18-15a155 155 0 0 1 19-17c-1-2-21-16-22-16l-7 4zM283 18a5501 5501 0 0 0-87 5l9 10 9 9h19l85-5c2-1 1-2-6-10l-9-10h-7l-14 1zM6 46 2 58l-2 8h2l6 1c6 0 22 4 29 8l13 8 6 4 2-5 2-12 1-7-3-3a86 86 0 0 0-45-18l-6-1-1 5zM172 50c-4 13-14 25-31 40-16 13-30 20-53 28-16 5-30 8-46 10-12 2-10 0-17 16-2 5-4 9-3 10a240 240 0 0 0 109-35c11-8 25-21 31-28 6-8 9-15 11-22l2-26-3 7zM318 60l-28 2-58 3-42 2-7 5-9 7-3 2 12-1a7505 7505 0 0 1 66-3h10v8c1 8-1 18-4 28-2 6-3 8-10 14-6 6-9 9-19 13l-11 6 8 1 15 3c7 0 7 0 18-6 17-8 25-18 30-33l2-20 1-16 26-1h24l8-5c14-9 14-9 2-9h-31z"/></svg>